# xmcd
#
# Track frame offsets:
#	150
#	4285
#	7577
#	11517
#	15772
#	20172
#	25157
#	29115
#	32962
#	37462
#	40685
#	44992
#	48475
#	51932
#	55250
#	58707
#	68192
#	72412
#	75770
#	79665
#	83247
#	86827
#	90622
#	94777
#	98410
#	101935
#	104990
#	108697
#	112980
#	117197
#	121330
#	131057
#	134340
#	137492
#	140702
#	144142
#	147150
#	150505
#	154162
#	158170
#	161597
#	165935
#	170070
#	174872
#	178640
#	182145
#	185270
#	188752
#	192347
#	202115
#	227150
#	254097
#	279737
#
# Disc length: 3746 seconds
#
# Revision: 1
# Processed by: cddbd v1.5.1PL0 Copyright (c) Steve Scherf et al.
# Submitted via: CDex 1.50Beta5
#
DISCID=ec0ea035
DTITLE=藤田英時 - なぜ聞き取れない?-2
DYEAR=1900
DGENRE=Other
TTITLE0=2-01
TTITLE1=2-02
TTITLE2=2-03
TTITLE3=2-04
TTITLE4=2-05
TTITLE5=2-06
TTITLE6=2-07
TTITLE7=2-08
TTITLE8=2-09
TTITLE9=2-10
TTITLE10=2-11
TTITLE11=2-12
TTITLE12=2-13
TTITLE13=2-14
TTITLE14=2-15
TTITLE15=2-16
TTITLE16=2-17
TTITLE17=2-18
TTITLE18=2-19
TTITLE19=2-20
TTITLE20=2-21
TTITLE21=2-22
TTITLE22=2-23
TTITLE23=2-24
TTITLE24=2-25
TTITLE25=2-26
TTITLE26=2-27
TTITLE27=2-28
TTITLE28=2-29
TTITLE29=2-30
TTITLE30=2-31
TTITLE31=2-32
TTITLE32=2-33
TTITLE33=2-34
TTITLE34=2-35
TTITLE35=2-36
TTITLE36=2-37
TTITLE37=2-38
TTITLE38=2-39
TTITLE39=2-40
TTITLE40=2-41
TTITLE41=2-42
TTITLE42=2-43
TTITLE43=2-44
TTITLE44=2-45
TTITLE45=2-46
TTITLE46=2-47
TTITLE47=2-48
TTITLE48=2-49
TTITLE49=2-50
TTITLE50=2-51
TTITLE51=2-52
TTITLE52=2-53
EXTD=
EXTT0=
EXTT1=
EXTT2=
EXTT3=
EXTT4=
EXTT5=
EXTT6=
EXTT7=
EXTT8=
EXTT9=
EXTT10=
EXTT11=
EXTT12=
EXTT13=
EXTT14=
EXTT15=
EXTT16=
EXTT17=
EXTT18=
EXTT19=
EXTT20=
EXTT21=
EXTT22=
EXTT23=
EXTT24=
EXTT25=
EXTT26=
EXTT27=
EXTT28=
EXTT29=
EXTT30=
EXTT31=
EXTT32=
EXTT33=
EXTT34=
EXTT35=
EXTT36=
EXTT37=
EXTT38=
EXTT39=
EXTT40=
EXTT41=
EXTT42=
EXTT43=
EXTT44=
EXTT45=
EXTT46=
EXTT47=
EXTT48=
EXTT49=
EXTT50=
EXTT51=
EXTT52=
PLAYORDER=
